<svg id="Group_246" data-name="Group 246" xmlns="http://www.w3.org/2000/svg" xmlns:xlink="http://www.w3.org/1999/xlink" width="84.932" height="173.268" viewBox="0 0 84.932 173.268">
  <defs>
    <clipPath id="clip-path">
      <rect id="Rectangle_91" data-name="Rectangle 91" width="84.932" height="173.268" fill="none"/>
    </clipPath>
  </defs>
  <path id="Path_834" data-name="Path 834" d="M0,0H84.932V173.268H0Z" fill="#175263"/>
  <rect id="Rectangle_76" data-name="Rectangle 76" width="1.645" height="8.325" transform="translate(31.568 147.591)" fill="#e2c393"/>
  <rect id="Rectangle_77" data-name="Rectangle 77" width="1.645" height="8.325" transform="translate(24.873 147.591)" fill="#e2c393"/>
  <rect id="Rectangle_78" data-name="Rectangle 78" width="1.645" height="8.325" transform="translate(45.019 147.591)" fill="#e2c393"/>
  <rect id="Rectangle_79" data-name="Rectangle 79" width="1.645" height="8.325" transform="translate(38.325 147.591)" fill="#e2c393"/>
  <rect id="Rectangle_80" data-name="Rectangle 80" width="1.645" height="8.325" transform="translate(58.409 147.591)" fill="#e2c393"/>
  <rect id="Rectangle_81" data-name="Rectangle 81" width="1.645" height="8.325" transform="translate(51.714 147.591)" fill="#e2c393"/>
  <rect id="Rectangle_82" data-name="Rectangle 82" width="1.645" height="62.235" transform="translate(38.294 56.229)" fill="#e2c393"/>
  <rect id="Rectangle_83" data-name="Rectangle 83" width="1.645" height="62.235" transform="translate(44.989 56.229)" fill="#e2c393"/>
  <rect id="Rectangle_84" data-name="Rectangle 84" width="1.645" height="43.777" transform="translate(51.684 74.686)" fill="#e2c393"/>
  <rect id="Rectangle_85" data-name="Rectangle 85" width="1.645" height="62.235" transform="translate(31.599 56.229)" fill="#e2c393"/>
  <rect id="Rectangle_86" data-name="Rectangle 86" width="1.645" height="9.651" transform="translate(31.599 38.572)" fill="#e2c393"/>
  <rect id="Rectangle_87" data-name="Rectangle 87" width="1.645" height="9.651" transform="translate(24.873 38.572)" fill="#e2c393"/>
  <rect id="Rectangle_88" data-name="Rectangle 88" width="1.645" height="62.235" transform="translate(24.873 56.229)" fill="#e2c393"/>
  <rect id="Rectangle_89" data-name="Rectangle 89" width="1.645" height="43.777" transform="translate(58.409 74.686)" fill="#e2c393"/>
  <path id="Path_87" data-name="Path 87" d="M40.9,310.643h1.958l2,13.727,1.98-13.727H48.8v18.211H47.21l.091-13.431-2.026,13.431h-.819L42.406,315.4l.091,13.454H40.9Z" transform="translate(-24.592 -186.766)" fill="#e2c393"/>
  <g id="Group_70" data-name="Group 70">
    <g id="Group_69" data-name="Group 69" clip-path="url(#clip-path)">
      <path id="Path_88" data-name="Path 88" d="M76.287,310.643H79.11a2.674,2.674,0,0,1,2.823,2.641v5.236a2.431,2.431,0,0,1-1.593,2.322l1.935,8.013H80.566l-1.639-7.694H77.88v7.694H76.287Zm2.823,9.06a1.173,1.173,0,0,0,1.229-1.184v-5.236A1.173,1.173,0,0,0,79.11,312.1H77.88v7.6Z" transform="translate(-45.865 -186.765)" fill="#e2c393"/>
      <rect id="Rectangle_90" data-name="Rectangle 90" width="1.594" height="18.211" transform="translate(42.623 123.878)" fill="#e2c393"/>
      <path id="Path_89" data-name="Path 89" d="M127.322,310.644h2.823a2.674,2.674,0,0,1,2.823,2.641v12.93a2.674,2.674,0,0,1-2.823,2.641h-2.823Zm2.823,16.754a1.173,1.173,0,0,0,1.229-1.184v-12.93a1.234,1.234,0,0,0-1.252-1.184h-1.207v15.3Z" transform="translate(-76.549 -186.766)" fill="#e2c393"/>
      <path id="Path_90" data-name="Path 90" d="M159.546,310.643h1.594l2.117,18.211h-1.594l-.364-3.893h-1.935L159,328.854h-1.594Zm1.639,12.862-.842-9.47-.865,9.47Z" transform="translate(-94.636 -186.765)" fill="#e2c393"/>
    </g>
  </g>
</svg>
