<svg xmlns="http://www.w3.org/2000/svg" xmlns:xlink="http://www.w3.org/1999/xlink" width="287" height="82.654" viewBox="0 0 287 82.654">
  <defs>
    <linearGradient id="linear-gradient" x1="0.001" y1="0.501" x2="0.999" y2="0.501" gradientUnits="objectBoundingBox">
      <stop offset="0" stop-color="#fdd204"/>
      <stop offset="0" stop-color="#f9b40d"/>
      <stop offset="0.1" stop-color="#f69a15"/>
      <stop offset="0.2" stop-color="#f4871b"/>
      <stop offset="0.3" stop-color="#f37b1e"/>
      <stop offset="0.4" stop-color="#f37820"/>
      <stop offset="0.7" stop-color="#dd1f26"/>
      <stop offset="1" stop-color="#9e1d20"/>
    </linearGradient>
    <linearGradient id="linear-gradient-2" x1="0" y1="0.499" x2="1.001" y2="0.499" xlink:href="#linear-gradient"/>
    <linearGradient id="linear-gradient-3" x1="0" y1="0.5" x2="1" y2="0.5" xlink:href="#linear-gradient"/>
  </defs>
  <g id="Vila_Ira_2_copy" data-name="Vila_Ira 2 copy" transform="translate(0 -0.004)">
    <line id="Line_5" data-name="Line 5" y2="38.72" transform="translate(138.026 36.573)" fill="none" stroke="#231f20" stroke-miterlimit="10" stroke-width="2.5"/>
    <g id="Group_73" data-name="Group 73" transform="translate(17.611 0.004)">
      <g id="Group_72" data-name="Group 72" transform="translate(0 1.304)">
        <path id="Path_91" data-name="Path 91" d="M218.918,32.166a.538.538,0,0,1,.43-.057c5.245-.115,9.429-3.525,9.716-8.913.487-8.455-8.053-12.9-15.132-8.569a56.219,56.219,0,0,0-8.741,7.337l-5.99-6.248c.659-.716,1.347-1.433,2.035-2.092,5.99-5.675,12.983-10.375,21.7-8.741A18.071,18.071,0,0,1,237.06,18.668c1.06,4.815.258,9.63-3.984,12.553-4.07,2.809-9.687,2.694-14.158.917Z" transform="translate(-159.721 -4.554)" fill="url(#linear-gradient)"/>
        <path id="Path_92" data-name="Path 92" d="M79.92,21.365l-.057.057-1.29.057c-5.961.545-9.63,5.7-8.569,11.55,1.261,6.878,8.8,9.544,14.617,6.019a52.8,52.8,0,0,0,9.085-7.48l5.99,6.248c-.631.688-1.318,1.4-2.006,2.064-4.127,3.955-9.028,7.71-14.789,8.77a17.99,17.99,0,0,1-18.056-7.136C60.775,35.9,59.514,26.668,65.877,22.2c4.041-2.837,9.6-2.551,14.043-.831Z" transform="translate(-61.448 -15.62)" fill="url(#linear-gradient-2)"/>
      </g>
      <path id="Path_93" data-name="Path 93" d="M141.3,24.564c.057-.057.086,0,.057.057-4.356,10.633-16.25,14.015-26.224,8.713C102.153,26.427,93.584,7.11,77.706,6.365c-4.3-.2-8.6,1.175-11.091,4.815-.086.057-.086,0-.057-.086A17.861,17.861,0,0,1,85.215.117c11.063,1.2,18.8,12.152,26.224,19.317,5.818,5.617,13.527,11.378,22.154,9.83a12.029,12.029,0,0,0,7.71-4.7Z" transform="translate(-65.081 -0.004)" fill="url(#linear-gradient-3)"/>
    </g>
    <g id="Group_74" data-name="Group 74" transform="translate(0 45.4)">
      <path id="Path_94" data-name="Path 94" d="M6.248,158.5l10.2,22.154L26.711,158.5h6.248l-12.84,26.768H12.782L0,158.5Z" transform="translate(0 -158.471)" fill="#6d6e71"/>
      <path id="Path_95" data-name="Path 95" d="M129.9,165.938V185.2h5.732V158.4H129.9v7.538Z" transform="translate(-92.671 -158.4)" fill="#6d6e71"/>
      <path id="Path_96" data-name="Path 96" d="M322.646,185.34h-5.732l-17.282-19.775V185.34H293.9V158.6h5.732l17.282,19.833V158.6h5.732Z" transform="translate(-209.669 -158.543)" fill="#6d6e71"/>
      <path id="Path_97" data-name="Path 97" d="M184.489,159.9H177.9l-13.1,26.367h6.133l1.892-4.041.831-1.777h14.989l.831,1.777h0l1.892,4.041H197.5L184.461,159.9Zm2.579,17.225H175.29l5.9-12.524Z" transform="translate(-117.569 -159.47)" fill="#6d6e71"/>
    </g>
    <g id="Group_75" data-name="Group 75" transform="translate(12.467 76.84)">
      <path id="Path_98" data-name="Path 98" d="M43.5,274.145V268.7h2.006a2.677,2.677,0,0,1,.888.115,1.48,1.48,0,0,1,.545.344,1.218,1.218,0,0,1,.287.487,1.848,1.848,0,0,1,.086.573,1.434,1.434,0,0,1-.172.745,1.25,1.25,0,0,1-.487.459,1.809,1.809,0,0,1-.659.229,3.393,3.393,0,0,1-.745.057H44.073v2.407h-.516Zm1.691-2.866a2.46,2.46,0,0,0,.659-.057,1.228,1.228,0,0,0,.487-.172.911.911,0,0,0,.315-.344,1.136,1.136,0,0,0,.115-.573.906.906,0,0,0-.344-.774,1.749,1.749,0,0,0-1.06-.258H44.016v2.178Z" transform="translate(-43.5 -268.528)" fill="#6d6e71"/>
      <path id="Path_99" data-name="Path 99" d="M81.916,271.581v2.465H81.4V268.6h2.149a2.32,2.32,0,0,1,1.376.344,1.276,1.276,0,0,1,.487,1.089,1.168,1.168,0,0,1-.2.831,1.668,1.668,0,0,1-.688.516.922.922,0,0,1,.373.229.943.943,0,0,1,.2.373,1.15,1.15,0,0,1,.086.43v.946a.621.621,0,0,0,.057.344.414.414,0,0,0,.057.2c0,.057.057.086.086.115v.057h-.573a.953.953,0,0,1-.115-.373,3.158,3.158,0,0,0-.057-.516,3.115,3.115,0,0,0-.029-.516,1.523,1.523,0,0,0-.029-.4.957.957,0,0,0-.143-.344.624.624,0,0,0-.258-.2.653.653,0,0,0-.315-.086H81.859Zm1.6-.43a1.674,1.674,0,0,0,.545-.057,1,1,0,0,0,.43-.2.842.842,0,0,0,.287-.344,1.219,1.219,0,0,0,.115-.487.82.82,0,0,0-.115-.487,1.022,1.022,0,0,0-.287-.315.971.971,0,0,0-.43-.172,2.824,2.824,0,0,0-.487-.057H81.945v2.092h1.6Z" transform="translate(-70.538 -268.457)" fill="#6d6e71"/>
      <path id="Path_100" data-name="Path 100" d="M119.929,270.995a3.514,3.514,0,0,1,.172-1.118,2.565,2.565,0,0,1,.487-.917,2.532,2.532,0,0,1,.8-.631,2.252,2.252,0,0,1,1.089-.229,2.778,2.778,0,0,1,1.118.229,2.119,2.119,0,0,1,.8.6,2.565,2.565,0,0,1,.487.917,3.718,3.718,0,0,1,0,2.235,2.565,2.565,0,0,1-.487.917,2.532,2.532,0,0,1-.8.631,2.839,2.839,0,0,1-2.235,0,2.125,2.125,0,0,1-.8-.631,3.112,3.112,0,0,1-.487-.917,3.514,3.514,0,0,1-.172-1.118Zm2.551,2.436a1.882,1.882,0,0,0,.917-.2,1.93,1.93,0,0,0,.631-.545,2.421,2.421,0,0,0,.373-.774,3.22,3.22,0,0,0,.115-.917,4.263,4.263,0,0,0-.143-1.032,2.484,2.484,0,0,0-.4-.774,2.073,2.073,0,0,0-.631-.487,2.094,2.094,0,0,0-.86-.172,1.957,1.957,0,0,0-.917.2,1.93,1.93,0,0,0-.631.545,2.421,2.421,0,0,0-.373.774,3.726,3.726,0,0,0,0,1.834,2.421,2.421,0,0,0,.373.774,1.93,1.93,0,0,0,.631.545,1.881,1.881,0,0,0,.917.2Z" transform="translate(-98.004 -268.1)" fill="#6d6e71"/>
      <path id="Path_101" data-name="Path 101" d="M163,274.145V268.7h2.006a2.677,2.677,0,0,1,.888.115,1.48,1.48,0,0,1,.545.344,1.218,1.218,0,0,1,.287.487,1.848,1.848,0,0,1,.086.573,1.434,1.434,0,0,1-.172.745,1.25,1.25,0,0,1-.487.459,1.809,1.809,0,0,1-.659.229,3.393,3.393,0,0,1-.745.057h-1.175v2.407h-.516Zm1.691-2.866a2.46,2.46,0,0,0,.659-.057,1.228,1.228,0,0,0,.487-.172.911.911,0,0,0,.315-.344,1.136,1.136,0,0,0,.115-.573.906.906,0,0,0-.344-.774,1.749,1.749,0,0,0-1.06-.258h-1.347v2.178Z" transform="translate(-128.751 -268.528)" fill="#6d6e71"/>
      <path id="Path_102" data-name="Path 102" d="M200.9,274.145V268.7h3.64v.43h-3.124v1.978h2.809v.43h-2.809v2.178H204.6v.43Z" transform="translate(-155.789 -268.528)" fill="#6d6e71"/>
      <path id="Path_103" data-name="Path 103" d="M239.216,271.581v2.465H238.7V268.6h2.149a2.32,2.32,0,0,1,1.376.344,1.276,1.276,0,0,1,.487,1.089,1.168,1.168,0,0,1-.2.831,1.668,1.668,0,0,1-.688.516.922.922,0,0,1,.373.229.944.944,0,0,1,.2.373,1.15,1.15,0,0,1,.086.43v.946a.621.621,0,0,0,.057.344.414.414,0,0,0,.057.2c0,.057.057.086.086.115v.057h-.573A.953.953,0,0,1,242,273.7a3.158,3.158,0,0,0-.057-.516,3.115,3.115,0,0,0-.029-.516c-.029-.172,0-.315-.029-.4a.957.957,0,0,0-.143-.344.624.624,0,0,0-.258-.2.578.578,0,0,0-.315-.086h-2.006Zm1.6-.43a1.675,1.675,0,0,0,.545-.057,1,1,0,0,0,.43-.2.843.843,0,0,0,.287-.344,1.22,1.22,0,0,0,.115-.487.82.82,0,0,0-.115-.487,1.022,1.022,0,0,0-.287-.315.971.971,0,0,0-.43-.172,2.824,2.824,0,0,0-.487-.057h-1.634v2.092h1.6Z" transform="translate(-182.756 -268.457)" fill="#6d6e71"/>
      <path id="Path_104" data-name="Path 104" d="M276.3,268.6h3.984v.43h-1.72v5.016h-.516V269.03h-1.72v-.43Z" transform="translate(-209.58 -268.457)" fill="#6d6e71"/>
      <path id="Path_105" data-name="Path 105" d="M315.1,274.145V268.7h.516v5.445Z" transform="translate(-237.26 -268.528)" fill="#6d6e71"/>
      <path id="Path_106" data-name="Path 106" d="M343.5,274.145V268.7h3.64v.43h-3.124v1.978h2.809v.43h-2.809v2.178H347.2v.43Z" transform="translate(-257.52 -268.528)" fill="#6d6e71"/>
      <path id="Path_107" data-name="Path 107" d="M381.03,272.226a1.469,1.469,0,0,0,.172.631.953.953,0,0,0,.344.4,1.279,1.279,0,0,0,.487.229,1.848,1.848,0,0,0,.573.086,2.234,2.234,0,0,0,.63-.086,1.08,1.08,0,0,0,.43-.258,1.091,1.091,0,0,0,.258-.373,1.15,1.15,0,0,0,.086-.43,1.167,1.167,0,0,0-.143-.516,1,1,0,0,0-.373-.315,2.406,2.406,0,0,0-.545-.2c-.2-.057-.4-.086-.6-.143l-.6-.172a1.9,1.9,0,0,1-.545-.258,1.35,1.35,0,0,1-.373-.43,1.494,1.494,0,0,1-.143-.659,1.025,1.025,0,0,1,.115-.545,1.381,1.381,0,0,1,.344-.459,1.57,1.57,0,0,1,.573-.315,2.259,2.259,0,0,1,.8-.115,3.174,3.174,0,0,1,.8.115,1.608,1.608,0,0,1,.573.344,1.627,1.627,0,0,1,.344.516,1.542,1.542,0,0,1,.115.631h-.487a1.163,1.163,0,0,0-.115-.545,1.285,1.285,0,0,0-.287-.373,1,1,0,0,0-.43-.2,1.419,1.419,0,0,0-.487-.057,1.51,1.51,0,0,0-.659.115,1.607,1.607,0,0,0-.43.287,1.313,1.313,0,0,0-.229.373.733.733,0,0,0,0,.43,1,1,0,0,0,.2.43,1.2,1.2,0,0,0,.4.258c.172.057.344.115.545.172s.4.086.6.143.4.115.573.172a1.742,1.742,0,0,1,.516.258,1,1,0,0,1,.344.43,1.5,1.5,0,0,1,.143.659,1.423,1.423,0,0,1-.516,1.175,2.223,2.223,0,0,1-1.462.43,1.448,1.448,0,0,1-.8-.115,1.69,1.69,0,0,1-.631-.344,1.5,1.5,0,0,1-.4-.545,2.189,2.189,0,0,1-.143-.774h.487Z" transform="translate(-283.988 -268.243)" fill="#6d6e71"/>
    </g>
    <g id="Group_77" data-name="Group 77" transform="translate(162.244 24.535)">
      <path id="Path_108" data-name="Path 108" d="M566.1,119.075l9.687-5.617V102.423l9.572-5.5V85.6L566.1,96.72Z" transform="translate(-566.1 -85.6)" fill="#48163f"/>
      <path id="Path_109" data-name="Path 109" d="M633.3,161.036V150.117l9.515-5.417v10.862Z" transform="translate(-614.041 -127.762)" fill="#48163f"/>
      <path id="Path_110" data-name="Path 110" d="M633.3,155.6V144.706l19.4-11.292V111.26l9.458-5.56V139Z" transform="translate(-614.041 -99.939)" fill="#48183f"/>
      <rect id="Rectangle_92" data-name="Rectangle 92" width="8.913" height="24.533" transform="translate(60.329 16.193)" fill="#703266"/>
      <rect id="Rectangle_93" data-name="Rectangle 93" width="8.913" height="8.913" transform="translate(60.329 4.987)" fill="#703266"/>
      <path id="Path_111" data-name="Path 111" d="M839.487,142.089s-3.525-.2-5.474,2.092v-2.092H825.1v24.533h8.913V154.757c0-.172.057-5.331,5.359-5.331h5.016v-7.337h-4.929Z" transform="translate(-750.871 -125.896)" fill="#703266"/>
      <path id="Path_112" data-name="Path 112" d="M910.889,142.1c-10.146,0-10.375,6.219-10.375,8.77h6.592A2.685,2.685,0,0,1,910,147.689c3.382,0,3.067,2.637,3.067,4.7,0,0-13.413-1.691-13.27,8.082.143,9.114,11.779,7.738,13.671,3.1v3.1h7.079V150.5s.516-8.4-9.63-8.4ZM910,161.388c-2.493,0-2.694-1.748-2.694-2.407s.2-2.407,3.124-2.407h2.579s.831,4.815-2.981,4.815Z" transform="translate(-804.159 -125.907)" fill="#703266"/>
      <g id="Group_76" data-name="Group 76" transform="translate(60.071 48.005)">
        <path id="Path_113" data-name="Path 113" d="M776.99,253.3h.544v2.78c0,1.118-.544,1.433-1.261,1.433s-.43-.057-.573-.086l.086-.43a1,1,0,0,0,.458.086c.487,0,.774-.229.774-1.032V253.3Z" transform="translate(-775.7 -253.243)"/>
        <path id="Path_114" data-name="Path 114" d="M789.583,255.192a1.955,1.955,0,0,1-1.92,2.207,1.931,1.931,0,0,1-1.863-2.121,2.008,2.008,0,0,1,1.92-2.178,1.915,1.915,0,0,1,1.863,2.121Zm-3.239.057c0,.888.487,1.691,1.318,1.691s1.347-.774,1.347-1.72-.43-1.691-1.318-1.691-1.347.831-1.347,1.748Z" transform="translate(-782.905 -253.1)"/>
        <path id="Path_115" data-name="Path 115" d="M803.345,253.3v4.156H802.8V253.3Z" transform="translate(-795.033 -253.243)"/>
        <path id="Path_116" data-name="Path 116" d="M809.3,257.456V253.3h.573l1.347,2.121a10.86,10.86,0,0,1,.745,1.347h0a16.414,16.414,0,0,1-.057-1.72V253.3h.516v4.156h-.544l-1.318-2.121a11.371,11.371,0,0,1-.774-1.4h0c.029.545.057,1.032.057,1.72v1.777h-.516Z" transform="translate(-799.67 -253.243)"/>
        <path id="Path_117" data-name="Path 117" d="M829.461,253.759H828.2V253.3h3.1v.459h-1.261v3.7h-.545v-3.7Z" transform="translate(-813.154 -253.243)"/>
        <path id="Path_118" data-name="Path 118" d="M842.445,253.3v1.748h2.006V253.3H845v4.156h-.544v-1.949h-2.006v1.949H841.9V253.3Z" transform="translate(-822.927 -253.243)"/>
        <path id="Path_119" data-name="Path 119" d="M859.45,255.507h-1.6V257h1.806v.459H857.3V253.3h2.235v.459h-1.72v1.318h1.6v.459Z" transform="translate(-833.914 -253.243)"/>
        <path id="Path_120" data-name="Path 120" d="M875.029,253.286a5.34,5.34,0,0,1,1.032-.086,1.726,1.726,0,0,1,1.2.344,1.035,1.035,0,0,1,.315.8,1.092,1.092,0,0,1-.774,1.06h0a1.1,1.1,0,0,1,.6.86,8.646,8.646,0,0,0,.315,1.146h-.545a6.059,6.059,0,0,1-.287-1c-.115-.573-.344-.8-.831-.8h-.516v1.806H875v-4.1Zm.545,1.892h.545c.573,0,.946-.315.946-.8s-.4-.774-.946-.774a1.279,1.279,0,0,0-.545.057Z" transform="translate(-846.541 -253.171)"/>
        <path id="Path_121" data-name="Path 121" d="M890.25,255.507h-1.6V257h1.805v.459H888.1V253.3h2.235v.459h-1.72v1.318h1.6v.459Z" transform="translate(-855.886 -253.243)"/>
        <path id="Path_122" data-name="Path 122" d="M900.047,257.456,898.7,253.3h.573l.659,2.064c.172.573.344,1.06.459,1.548h0a13.518,13.518,0,0,1,.487-1.548l.716-2.064h.573l-1.49,4.156h-.6Z" transform="translate(-863.448 -253.243)"/>
        <path id="Path_123" data-name="Path 123" d="M916.583,255.192a1.955,1.955,0,0,1-1.92,2.207,1.931,1.931,0,0,1-1.863-2.121,2.008,2.008,0,0,1,1.92-2.178,1.915,1.915,0,0,1,1.863,2.121Zm-3.239.057c0,.888.487,1.691,1.318,1.691s1.347-.774,1.347-1.72-.43-1.691-1.318-1.691-1.347.831-1.347,1.748Z" transform="translate(-873.507 -253.1)"/>
        <path id="Path_124" data-name="Path 124" d="M929.8,253.3h.544v3.726h1.777v.459H929.8v-4.156Z" transform="translate(-885.635 -253.243)"/>
        <path id="Path_125" data-name="Path 125" d="M941.045,253.3v2.465c0,.946.4,1.318.974,1.318s1-.4,1-1.318V253.3h.545v2.436c0,1.29-.688,1.806-1.576,1.806s-1.49-.487-1.49-1.777V253.3h.545Z" transform="translate(-893.269 -253.243)"/>
        <path id="Path_126" data-name="Path 126" d="M955.461,253.759H954.2V253.3h3.1v.459h-1.261v3.7h-.545v-3.7Z" transform="translate(-903.042 -253.243)"/>
        <path id="Path_127" data-name="Path 127" d="M968.345,253.3v4.156H967.8V253.3Z" transform="translate(-912.745 -253.243)"/>
        <path id="Path_128" data-name="Path 128" d="M977.383,255.192a1.954,1.954,0,0,1-1.92,2.207,1.931,1.931,0,0,1-1.863-2.121,2.008,2.008,0,0,1,1.92-2.178,1.915,1.915,0,0,1,1.863,2.121Zm-3.238.057c0,.888.487,1.691,1.318,1.691s1.347-.774,1.347-1.72-.43-1.691-1.318-1.691-1.347.831-1.347,1.748Z" transform="translate(-916.882 -253.1)"/>
        <path id="Path_129" data-name="Path 129" d="M990.5,257.456V253.3h.573l1.347,2.121a10.871,10.871,0,0,1,.745,1.347h0a16.379,16.379,0,0,1-.057-1.72V253.3h.516v4.156h-.544l-1.318-2.121a11.4,11.4,0,0,1-.774-1.4h0c.029.545.057,1.032.057,1.72v1.777h-.516Z" transform="translate(-928.939 -253.243)"/>
      </g>
    </g>
  </g>
</svg>
